<?xml version="1.0" encoding="UTF-8"?>
<svg xmlns="http://www.w3.org/2000/svg" xmlns:xlink="http://www.w3.org/1999/xlink" width="80px" height="80px" viewBox="0 0 80 80" version="1.1">
<g id="surface1">
<path style=" stroke:none;fill-rule:nonzero;fill:rgb(0%,0%,0%);fill-opacity:1;" d="M 28.023438 33.203125 C 28.019531 32.734375 28 32.304688 28.027344 31.875 C 28.050781 31.546875 27.910156 31.386719 27.625 31.257812 C 25.601562 30.328125 23.585938 29.386719 21.570312 28.449219 C 21.355469 28.351562 21.136719 28.265625 21.023438 28.03125 C 20.84375 27.652344 20.996094 27.238281 21.425781 27.039062 C 23.328125 26.164062 25.234375 25.296875 27.140625 24.433594 C 29.878906 23.1875 32.613281 21.949219 35.351562 20.707031 C 36.667969 20.113281 37.988281 19.535156 39.296875 18.921875 C 39.761719 18.703125 40.175781 18.710938 40.636719 18.917969 C 46.039062 21.371094 51.441406 23.8125 56.847656 26.257812 C 57.390625 26.507812 57.933594 26.757812 58.484375 26.996094 C 58.804688 27.132812 58.988281 27.367188 59 27.707031 C 59.011719 28.066406 58.796875 28.265625 58.484375 28.410156 C 54.207031 30.378906 49.933594 32.355469 45.65625 34.328125 C 44.0625 35.066406 42.464844 35.792969 40.875 36.542969 C 40.285156 36.816406 39.734375 36.785156 39.152344 36.515625 C 36.46875 35.257812 33.773438 34.019531 31.085938 32.765625 C 30.910156 32.683594 30.617188 32.664062 30.632812 32.40625 C 30.644531 32.1875 30.917969 32.175781 31.089844 32.097656 C 33.972656 30.800781 36.898438 29.613281 39.824219 28.417969 C 39.910156 28.382812 39.996094 28.355469 40.078125 28.3125 C 40.417969 28.132812 40.457031 27.859375 40.136719 27.660156 C 39.742188 27.414062 39.300781 27.289062 38.835938 27.464844 C 35.894531 28.582031 33.035156 29.90625 30.148438 31.152344 C 29.558594 31.40625 29.335938 31.746094 29.378906 32.390625 C 29.441406 33.269531 29.402344 34.160156 29.394531 35.042969 C 29.390625 35.285156 29.457031 35.445312 29.65625 35.605469 C 30.363281 36.171875 30.402344 37.265625 29.722656 37.871094 C 29.484375 38.085938 29.53125 38.296875 29.589844 38.53125 C 29.894531 39.753906 30.203125 40.972656 30.507812 42.195312 C 30.613281 42.609375 30.519531 42.886719 30.140625 43.066406 C 29.144531 43.539062 28.128906 43.546875 27.132812 43.070312 C 26.71875 42.871094 26.640625 42.617188 26.75 42.167969 C 27.050781 40.929688 27.347656 39.691406 27.660156 38.460938 C 27.722656 38.207031 27.695312 38.035156 27.496094 37.839844 C 26.816406 37.164062 26.933594 36.019531 27.734375 35.5 C 27.949219 35.359375 28.03125 35.207031 28.023438 34.960938 C 28.011719 34.386719 28.019531 33.816406 28.023438 33.203125 Z M 28.023438 33.203125 "/>
<path style=" stroke:none;fill-rule:nonzero;fill:rgb(0%,0%,0%);fill-opacity:1;" d="M 34.167969 35.507812 C 35.761719 36.253906 37.332031 36.980469 38.898438 37.71875 C 39.679688 38.085938 40.425781 38.070312 41.214844 37.699219 C 44.332031 36.230469 47.464844 34.792969 50.585938 33.335938 C 50.878906 33.203125 51.03125 33.269531 51.078125 33.585938 C 51.082031 33.613281 51.09375 33.636719 51.09375 33.664062 C 51.109375 35.328125 51.175781 36.992188 51.058594 38.652344 C 51.023438 39.132812 50.757812 39.46875 50.375 39.734375 C 48.128906 41.300781 45.65625 42.28125 42.929688 42.617188 C 39.546875 43.03125 36.335938 42.46875 33.273438 40.992188 C 32.570312 40.652344 31.925781 40.214844 31.304688 39.734375 C 30.75 39.304688 30.542969 38.730469 30.535156 38.066406 C 30.523438 36.871094 30.527344 35.671875 30.539062 34.476562 C 30.542969 33.980469 30.699219 33.894531 31.136719 34.097656 C 32.136719 34.566406 33.140625 35.03125 34.167969 35.507812 Z M 34.167969 35.507812 "/>
<path style=" stroke:none;fill-rule:nonzero;fill:rgb(0%,0%,0%);fill-opacity:1;" d="M 24.738281 54.296875 C 24.707031 53.519531 24.808594 52.777344 24.667969 52.039062 C 24.558594 51.480469 24.121094 51.136719 23.589844 51.203125 C 23.015625 51.277344 22.613281 51.742188 22.625 52.292969 C 22.648438 53.332031 22.648438 54.371094 22.675781 55.410156 C 22.6875 55.753906 22.59375 55.921875 22.21875 55.886719 C 21.933594 55.859375 21.644531 55.878906 21.359375 55.878906 C 21.195312 55.878906 21.074219 55.832031 21.074219 55.640625 C 21.074219 53.769531 21.074219 51.902344 21.074219 50.039062 C 21.894531 49.839844 22.421875 49.941406 22.589844 50.355469 C 22.992188 50.164062 23.375 49.921875 23.832031 49.863281 C 24.511719 49.777344 25.132812 49.863281 25.65625 50.328125 C 25.863281 50.507812 26.015625 50.507812 26.230469 50.347656 C 26.773438 49.945312 27.398438 49.753906 28.066406 49.84375 C 29.28125 50.007812 29.90625 50.714844 29.941406 51.988281 C 29.972656 53.171875 29.945312 54.359375 29.953125 55.542969 C 29.953125 55.792969 29.859375 55.875 29.609375 55.886719 C 28.332031 55.9375 28.34375 55.941406 28.328125 54.679688 C 28.316406 53.796875 28.414062 52.910156 28.261719 52.03125 C 28.167969 51.515625 27.707031 51.15625 27.238281 51.207031 C 26.722656 51.257812 26.277344 51.714844 26.277344 52.210938 C 26.273438 53.277344 26.265625 54.347656 26.28125 55.414062 C 26.285156 55.753906 26.203125 55.894531 25.828125 55.890625 C 24.738281 55.882812 24.738281 55.898438 24.738281 54.804688 C 24.738281 54.648438 24.738281 54.492188 24.738281 54.296875 Z M 24.738281 54.296875 "/>
<path style=" stroke:none;fill-rule:nonzero;fill:rgb(0%,0%,0%);fill-opacity:1;" d="M 50.300781 49.6875 C 50.300781 49.140625 50.316406 48.632812 50.292969 48.125 C 50.28125 47.792969 50.410156 47.683594 50.726562 47.707031 C 51.011719 47.726562 51.300781 47.726562 51.585938 47.707031 C 51.902344 47.683594 51.988281 47.820312 51.984375 48.117188 C 51.972656 48.925781 51.992188 49.734375 51.972656 50.539062 C 51.964844 50.871094 52.058594 51.003906 52.410156 50.996094 C 53.296875 50.976562 54.183594 50.980469 55.066406 50.996094 C 55.355469 51 55.460938 50.90625 55.457031 50.617188 C 55.441406 49.78125 55.460938 48.949219 55.445312 48.117188 C 55.441406 47.8125 55.535156 47.6875 55.847656 47.707031 C 56.132812 47.726562 56.421875 47.730469 56.707031 47.707031 C 57.0625 47.671875 57.144531 47.828125 57.144531 48.15625 C 57.128906 50.214844 57.132812 52.269531 57.140625 54.328125 C 57.140625 54.730469 57.175781 55.132812 57.195312 55.535156 C 57.210938 55.78125 57.105469 55.894531 56.851562 55.882812 C 56.511719 55.871094 56.175781 55.871094 55.835938 55.886719 C 55.546875 55.898438 55.445312 55.78125 55.449219 55.496094 C 55.460938 54.652344 55.441406 53.804688 55.460938 52.960938 C 55.46875 52.621094 55.367188 52.5 55.019531 52.507812 C 54.132812 52.527344 53.25 52.519531 52.363281 52.507812 C 52.078125 52.503906 51.972656 52.597656 51.976562 52.890625 C 51.988281 53.75 51.96875 54.609375 51.984375 55.46875 C 51.992188 55.796875 51.875 55.910156 51.558594 55.886719 C 51.285156 55.867188 51.007812 55.863281 50.738281 55.886719 C 50.378906 55.917969 50.296875 55.757812 50.296875 55.429688 C 50.308594 53.527344 50.300781 51.628906 50.300781 49.6875 Z M 50.300781 49.6875 "/>
<path style=" stroke:none;fill-rule:nonzero;fill:rgb(0%,0%,0%);fill-opacity:1;" d="M 33.894531 49.867188 C 35.761719 49.578125 37.125 50.75 37.140625 52.609375 C 37.144531 53.226562 37.113281 53.828125 36.851562 54.398438 C 36.210938 55.796875 34.585938 56.382812 33.199219 55.714844 C 33.050781 55.640625 32.902344 55.5625 32.683594 55.449219 C 32.683594 56.089844 32.683594 56.679688 32.683594 57.273438 C 32.683594 58.308594 32.683594 58.308594 31.636719 58.304688 C 31.082031 58.304688 31.082031 58.304688 31.082031 57.773438 C 31.074219 55.339844 31.070312 52.90625 31.066406 50.472656 C 31.066406 50.328125 31.066406 50.1875 31.066406 50.007812 C 31.511719 49.9375 31.9375 49.972656 32.359375 49.984375 C 32.59375 49.988281 32.527344 50.289062 32.746094 50.390625 C 33.089844 50.222656 33.425781 49.933594 33.894531 49.867188 M 33.355469 54.507812 C 34.03125 54.832031 34.695312 54.714844 35.101562 54.160156 C 35.546875 53.550781 35.613281 52.871094 35.371094 52.164062 C 35.136719 51.464844 34.480469 51.085938 33.742188 51.203125 C 33.089844 51.3125 32.6875 51.832031 32.683594 52.589844 C 32.683594 52.824219 32.683594 53.058594 32.683594 53.289062 C 32.683594 53.796875 32.886719 54.191406 33.355469 54.507812 Z M 33.355469 54.507812 "/>
<path style=" stroke:none;fill-rule:nonzero;fill:rgb(0%,0%,0%);fill-opacity:1;" d="M 7.941406 53.679688 C 7.375 51.921875 7.460938 50.289062 8.699219 48.855469 C 9.40625 48.03125 10.355469 47.679688 11.425781 47.625 C 12.230469 47.585938 13 47.699219 13.734375 48.0625 C 13.976562 48.179688 14.058594 48.332031 14.003906 48.585938 C 13.9375 48.875 13.882812 49.164062 13.8125 49.503906 C 13.332031 49.324219 12.886719 49.121094 12.398438 49.054688 C 10.839844 48.847656 9.355469 49.574219 9.324219 51.574219 C 9.316406 52.03125 9.328125 52.484375 9.476562 52.921875 C 9.796875 53.894531 10.546875 54.464844 11.558594 54.511719 C 12.316406 54.546875 13.039062 54.460938 13.695312 54.050781 C 13.757812 54.011719 13.832031 53.96875 13.96875 54.019531 C 14 54.398438 14.046875 54.804688 14.066406 55.210938 C 14.070312 55.367188 13.910156 55.4375 13.789062 55.511719 C 13.402344 55.742188 12.980469 55.878906 12.539062 55.921875 C 11.117188 56.070312 9.75 55.992188 8.679688 54.851562 C 8.367188 54.519531 8.128906 54.132812 7.941406 53.679688 Z M 7.941406 53.679688 "/>
<path style=" stroke:none;fill-rule:nonzero;fill:rgb(0%,0%,0%);fill-opacity:1;" d="M 65.628906 51.671875 C 66.222656 50.042969 68.175781 49.484375 69.582031 50 C 70.515625 50.339844 70.894531 51.097656 71.03125 52.007812 C 71.082031 52.347656 71.121094 52.695312 71.066406 53.054688 C 71.023438 53.328125 70.917969 53.390625 70.667969 53.390625 C 69.625 53.378906 68.582031 53.386719 67.542969 53.386719 C 67.097656 53.386719 67.03125 53.507812 67.253906 53.894531 C 67.621094 54.519531 68.460938 54.8125 69.363281 54.632812 C 69.824219 54.539062 70.261719 54.386719 70.71875 54.105469 C 70.71875 54.578125 70.726562 54.988281 70.714844 55.394531 C 70.710938 55.546875 70.574219 55.605469 70.453125 55.652344 C 69.261719 56.097656 68.0625 56.160156 66.890625 55.617188 C 65.988281 55.195312 65.566406 54.390625 65.453125 53.433594 C 65.386719 52.855469 65.402344 52.265625 65.628906 51.671875 M 67.578125 51.363281 C 67.425781 51.46875 67.316406 51.613281 67.234375 51.777344 C 67.054688 52.152344 67.125 52.261719 67.546875 52.265625 C 68.078125 52.269531 68.609375 52.257812 69.140625 52.269531 C 69.472656 52.273438 69.550781 52.136719 69.460938 51.832031 C 69.246094 51.105469 68.390625 50.867188 67.578125 51.363281 Z M 67.578125 51.363281 "/>
<path style=" stroke:none;fill-rule:nonzero;fill:rgb(0%,0%,0%);fill-opacity:1;" d="M 41.925781 50.9375 C 41.925781 49.972656 41.925781 49.972656 42.847656 49.972656 C 42.910156 49.972656 42.976562 49.976562 43.042969 49.96875 C 43.417969 49.917969 43.535156 50.074219 43.53125 50.449219 C 43.519531 52.101562 43.523438 53.753906 43.542969 55.40625 C 43.550781 55.789062 43.421875 55.925781 43.050781 55.886719 C 42.882812 55.867188 42.710938 55.867188 42.546875 55.886719 C 42.195312 55.925781 41.953125 55.84375 41.972656 55.441406 C 41.796875 55.363281 41.714844 55.492188 41.613281 55.558594 C 40.820312 56.085938 39.972656 56.089844 39.113281 55.789062 C 38.378906 55.53125 38.117188 54.898438 38.035156 54.203125 C 37.882812 52.894531 37.980469 51.578125 37.957031 50.265625 C 37.953125 50.082031 38.015625 49.96875 38.222656 49.972656 C 38.648438 49.976562 39.078125 49.972656 39.515625 49.972656 C 39.617188 50.355469 39.628906 50.714844 39.628906 51.074219 C 39.628906 51.90625 39.625 52.738281 39.628906 53.574219 C 39.632812 54.214844 39.96875 54.609375 40.546875 54.65625 C 41.199219 54.707031 41.730469 54.335938 41.847656 53.742188 C 42.003906 52.964844 41.890625 52.183594 41.925781 51.40625 C 41.929688 51.265625 41.925781 51.121094 41.925781 50.9375 Z M 41.925781 50.9375 "/>
<path style=" stroke:none;fill-rule:nonzero;fill:rgb(0%,0%,0%);fill-opacity:1;" d="M 18.929688 55.882812 C 18.5625 55.945312 18.527344 55.671875 18.445312 55.4375 C 18.03125 55.609375 17.664062 55.828125 17.238281 55.90625 C 16.777344 55.996094 16.332031 55.980469 15.890625 55.84375 C 15.21875 55.636719 14.765625 55.019531 14.742188 54.285156 C 14.710938 53.402344 15.085938 52.785156 15.847656 52.5 C 16.542969 52.238281 17.269531 52.191406 18 52.265625 C 18.304688 52.292969 18.363281 52.183594 18.34375 51.921875 C 18.316406 51.515625 18.0625 51.25 17.617188 51.199219 C 16.890625 51.121094 16.1875 51.191406 15.523438 51.523438 C 15.421875 51.574219 15.328125 51.65625 15.179688 51.609375 C 15.089844 51.289062 15.136719 50.953125 15.144531 50.621094 C 15.148438 50.453125 15.296875 50.382812 15.421875 50.316406 C 16.367188 49.804688 17.363281 49.671875 18.402344 49.960938 C 19.328125 50.222656 19.839844 50.890625 19.863281 51.890625 C 19.886719 53.046875 19.867188 54.207031 19.941406 55.363281 C 19.972656 55.878906 19.949219 55.878906 19.433594 55.882812 C 19.277344 55.882812 19.121094 55.882812 18.929688 55.882812 M 16.710938 53.378906 C 16.269531 53.660156 16.136719 54.078125 16.398438 54.414062 C 16.652344 54.738281 17.015625 54.785156 17.390625 54.722656 C 17.785156 54.65625 18.164062 54.519531 18.3125 54.097656 C 18.523438 53.484375 18.328125 53.234375 17.6875 53.226562 C 17.371094 53.222656 17.0625 53.238281 16.710938 53.378906 Z M 16.710938 53.378906 "/>
<path style=" stroke:none;fill-rule:nonzero;fill:rgb(0%,0%,0%);fill-opacity:1;" d="M 46.128906 51.683594 C 46.25 52.003906 46.519531 52.082031 46.78125 52.15625 C 47.21875 52.28125 47.664062 52.363281 48.085938 52.535156 C 48.957031 52.894531 49.300781 53.429688 49.242188 54.347656 C 49.203125 55.023438 48.628906 55.691406 47.863281 55.859375 C 46.910156 56.066406 45.957031 56.027344 45.019531 55.714844 C 44.769531 55.628906 44.625 55.496094 44.65625 55.207031 C 44.691406 54.863281 44.617188 54.511719 44.703125 54.164062 C 44.933594 54.160156 45.085938 54.300781 45.257812 54.378906 C 45.757812 54.613281 46.28125 54.742188 46.835938 54.738281 C 46.996094 54.738281 47.144531 54.699219 47.289062 54.640625 C 47.472656 54.566406 47.589844 54.425781 47.613281 54.230469 C 47.640625 54.023438 47.5 53.894531 47.332031 53.804688 C 47.101562 53.679688 46.855469 53.605469 46.601562 53.542969 C 46.171875 53.433594 45.75 53.308594 45.371094 53.070312 C 44.800781 52.714844 44.507812 52.195312 44.546875 51.535156 C 44.589844 50.824219 44.976562 50.324219 45.652344 50.066406 C 46.671875 49.679688 47.691406 49.808594 48.710938 50.082031 C 48.898438 50.132812 48.945312 50.265625 48.925781 50.441406 C 48.890625 50.773438 48.859375 51.109375 48.824219 51.4375 C 48.65625 51.527344 48.539062 51.410156 48.414062 51.359375 C 47.890625 51.148438 47.351562 51.015625 46.785156 51.050781 C 46.335938 51.078125 46.175781 51.238281 46.128906 51.683594 Z M 46.128906 51.683594 "/>
<path style=" stroke:none;fill-rule:nonzero;fill:rgb(0%,0%,0%);fill-opacity:1;" d="M 61.53125 55.230469 C 61.507812 53.566406 61.589844 51.9375 61.46875 50.3125 C 61.449219 50.054688 61.546875 49.957031 61.796875 49.96875 C 62.007812 49.980469 62.214844 49.988281 62.421875 49.96875 C 62.808594 49.929688 63.078125 50.007812 62.980469 50.574219 C 63.398438 50.199219 63.777344 49.917969 64.269531 49.855469 C 64.410156 49.839844 64.558594 49.808594 64.691406 49.835938 C 65.199219 49.9375 65.347656 49.949219 65.207031 50.5 C 65.140625 50.757812 65.171875 51.039062 65.046875 51.324219 C 64.785156 51.308594 64.523438 51.230469 64.253906 51.261719 C 63.570312 51.332031 63.078125 51.84375 63.074219 52.53125 C 63.070312 53.507812 63.0625 54.484375 63.078125 55.460938 C 63.085938 55.777344 62.988281 55.921875 62.660156 55.882812 C 62.492188 55.867188 62.320312 55.882812 62.152344 55.882812 C 61.535156 55.882812 61.535156 55.882812 61.53125 55.230469 Z M 61.53125 55.230469 "/>
<path style=" stroke:none;fill-rule:nonzero;fill:rgb(0%,0%,0%);fill-opacity:1;" d="M 59 49.972656 C 59.140625 49.972656 59.246094 49.96875 59.351562 49.972656 C 60.246094 49.992188 60.164062 49.820312 60.171875 50.773438 C 60.175781 52.320312 60.164062 53.867188 60.179688 55.414062 C 60.179688 55.761719 60.085938 55.921875 59.714844 55.886719 C 59.46875 55.863281 59.21875 55.867188 58.976562 55.886719 C 58.671875 55.90625 58.5625 55.789062 58.566406 55.480469 C 58.578125 54.414062 58.570312 53.351562 58.570312 52.285156 C 58.570312 51.53125 58.570312 50.78125 58.570312 50.039062 C 58.703125 49.945312 58.839844 49.984375 59 49.972656 Z M 59 49.972656 "/>
<path style=" stroke:none;fill-rule:nonzero;fill:rgb(0%,0%,0%);fill-opacity:1;" d="M 58.480469 47.960938 C 58.734375 47.457031 59.105469 47.246094 59.539062 47.332031 C 59.921875 47.40625 60.21875 47.71875 60.257812 48.101562 C 60.292969 48.476562 60.183594 48.792969 59.847656 49 C 59.503906 49.214844 59.152344 49.214844 58.832031 48.980469 C 58.503906 48.742188 58.359375 48.40625 58.480469 47.960938 Z M 58.480469 47.960938 "/>
</g>
</svg>
